<svg width="44" height="44" viewBox="0 0 44 44" fill="none" xmlns="http://www.w3.org/2000/svg">
<path d="M20.1665 5.04166C20.1665 4.28227 19.5509 3.66666 18.7915 3.66666H9.62484C6.33413 3.66666 3.6665 6.33428 3.6665 9.62499V18.7917C3.6665 19.551 4.28212 20.1667 5.0415 20.1667C5.80089 20.1667 6.4165 19.551 6.4165 18.7917V9.62499C6.4165 7.85307 7.85292 6.41666 9.62484 6.41666H18.7915C19.5509 6.41666 20.1665 5.80104 20.1665 5.04166ZM25.2082 3.66666C24.4488 3.66666 23.8332 4.28227 23.8332 5.04166C23.8332 5.80104 24.4488 6.41666 25.2082 6.41666H34.3748C36.1468 6.41666 37.5832 7.85307 37.5832 9.62499V18.7917C37.5832 19.551 38.1988 20.1667 38.9582 20.1667C39.7175 20.1667 40.3332 19.551 40.3332 18.7917V9.62499C40.3332 6.33428 37.6655 3.66666 34.3748 3.66666H25.2082ZM25.2082 40.3333C24.4488 40.3333 23.8332 39.7177 23.8332 38.9583C23.8332 38.199 24.4488 37.5833 25.2082 37.5833H34.3748C36.1468 37.5833 37.5832 36.1469 37.5832 34.375V25.2083C37.5832 24.449 38.1988 23.8333 38.9582 23.8333C39.7175 23.8333 40.3332 24.449 40.3332 25.2083V34.375C40.3332 37.6656 37.6655 40.3333 34.3748 40.3333H25.2082ZM18.7915 40.3333C19.5509 40.3333 20.1665 39.7177 20.1665 38.9583C20.1665 38.199 19.5509 37.5833 18.7915 37.5833H9.62484C7.85292 37.5833 6.4165 36.1469 6.4165 34.375V25.2083C6.4165 24.449 5.80089 23.8333 5.0415 23.8333C4.28212 23.8333 3.6665 24.449 3.6665 25.2083V34.375C3.6665 37.6656 6.33413 40.3333 9.62484 40.3333H18.7915Z" fill="#276766"/>
</svg>
