<svg width="88" height="95" viewBox="0 0 88 95" fill="none" xmlns="http://www.w3.org/2000/svg">
<path d="M38.0653 9.98485C39.6263 7.66286 42.7067 7.14082 44.9456 8.81883L77.3065 33.0729C79.8393 34.9712 80.1506 38.7865 77.9554 41.0263L75.887 43.1369C75.6857 43.3423 75.5019 43.5657 75.3376 43.8048L50.365 80.1447C50.1251 80.4939 49.9283 80.874 49.7794 81.2762L49.0544 83.2344C47.8999 86.3527 44.2474 87.4601 41.6177 85.4891L9.5567 61.4599C7.31782 59.7819 6.76829 56.5392 8.32928 54.2173L38.0653 9.98485Z" fill="#8EEBFF"/>
<path fill-rule="evenodd" clip-rule="evenodd" d="M44.1281 6.77092C41.8892 5.09291 38.8088 5.61495 37.2478 7.93694L7.51178 52.1693C5.95079 54.4913 6.50032 57.734 8.7392 59.412L40.8002 83.4412C43.4299 85.4122 47.0824 84.3048 48.2369 81.1865L48.9619 79.2283C49.1108 78.8261 49.3076 78.446 49.5475 78.0968L74.5201 41.7569C74.6844 41.5178 74.8682 41.2943 75.0695 41.0889L77.1379 38.9784C79.3331 36.7386 79.0218 32.9233 76.489 31.025L44.1281 6.77092ZM44.4984 18.666C43.4051 17.8465 41.9008 18.1015 41.1385 19.2354C40.3762 20.3693 40.6445 21.9529 41.7379 22.7723L62.3388 38.2124C63.4322 39.0319 64.9365 38.7769 65.6988 37.643C66.4611 36.5091 66.1927 34.9255 65.0994 34.1061L44.4984 18.666ZM36.7103 26.8717C37.4726 25.7378 38.9769 25.4828 40.0703 26.3023L60.6712 41.7424C61.7645 42.5618 62.0329 44.1454 61.2706 45.2793C60.5083 46.4132 59.004 46.6682 57.9106 45.8487L37.3097 30.4086C36.2164 29.5892 35.948 28.0056 36.7103 26.8717ZM18.6746 47.4215C17.2353 46.3428 15.255 46.6784 14.2516 48.1711L13.8097 48.8284C12.8062 50.3211 13.1594 52.4057 14.5987 53.4844L43.2596 74.9654L47.3355 68.9025L18.6746 47.4215Z" fill="white"/>
</svg>
