<svg width="770" height="397" viewBox="0 0 770 397" fill="none" xmlns="http://www.w3.org/2000/svg">
<g filter="url(#filter0_b_1_30)">
<path fill-rule="evenodd" clip-rule="evenodd" d="M52.8936 0C23.6813 0 0 23.6813 0 52.8936V344.106C0 373.319 23.6813 397 52.8937 397H672.736C686.628 397 699.27 391.644 708.708 382.884C709.542 382.11 710.712 381.796 711.809 382.097L765.099 396.733C767.794 397.473 770.061 394.619 768.73 392.161L736.223 332.13C735.925 331.58 735.471 331.131 734.919 330.838L727.316 326.807C726.278 326.257 725.629 325.178 725.629 324.003V52.8936C725.629 23.6813 701.948 0 672.735 0H52.8936Z" fill="#446BF4" fill-opacity="0.2"/>
</g>
<defs>
<filter id="filter0_b_1_30" x="-11.6366" y="-11.6366" width="792.396" height="420.273" filterUnits="userSpaceOnUse" color-interpolation-filters="sRGB">
<feFlood flood-opacity="0" result="BackgroundImageFix"/>
<feGaussianBlur in="BackgroundImageFix" stdDeviation="5.8183"/>
<feComposite in2="SourceAlpha" operator="in" result="effect1_backgroundBlur_1_30"/>
<feBlend mode="normal" in="SourceGraphic" in2="effect1_backgroundBlur_1_30" result="shape"/>
</filter>
</defs>
</svg>
