<svg width="135" height="23" viewBox="0 0 135 23" fill="none" xmlns="http://www.w3.org/2000/svg">
<path d="M10.5566 3.17743C11.0096 2.25954 12.3185 2.25954 12.7716 3.17743L14.9286 7.54808L19.7519 8.24895C20.7649 8.39614 21.1693 9.64099 20.4364 10.3554L16.9461 13.7575L17.7701 18.5614C17.9431 19.5702 16.8842 20.3396 15.9782 19.8632L11.6641 17.5952L7.35002 19.8632C6.44401 20.3396 5.3851 19.5702 5.55813 18.5614L6.38205 13.7575L2.89188 10.3554C2.1589 9.64099 2.56336 8.39614 3.57632 8.24895L8.39962 7.54808L10.5566 3.17743Z" fill="#F0E700"/>
<path d="M38.5117 3.17743C38.9647 2.25954 40.2736 2.25954 40.7266 3.17743L42.8837 7.54808L47.707 8.24895C48.72 8.39614 49.1244 9.64099 48.3914 10.3554L44.9012 13.7575L45.7252 18.5614C45.8982 19.5702 44.8393 20.3396 43.9333 19.8632L39.6192 17.5952L35.3051 19.8632C34.3991 20.3396 33.3402 19.5702 33.5132 18.5614L34.3371 13.7575L30.847 10.3554C30.114 9.64099 30.5184 8.39614 31.5314 8.24895L36.3547 7.54808L38.5117 3.17743Z" fill="#F0E700"/>
<path d="M66.4668 3.17743C66.9198 2.25954 68.2287 2.25954 68.6817 3.17743L70.8388 7.54808L75.6621 8.24895C76.675 8.39614 77.0795 9.64099 76.3465 10.3554L72.8563 13.7575L73.6803 18.5614C73.8532 19.5702 72.7944 20.3396 71.8883 19.8632L67.5743 17.5952L63.2602 19.8632C62.3542 20.3396 61.2953 19.5702 61.4683 18.5614L62.2922 13.7575L58.802 10.3554C58.0691 9.64099 58.4735 8.39614 59.4865 8.24895L64.3098 7.54808L66.4668 3.17743Z" fill="#F0E700"/>
<path d="M94.4219 3.17743C94.8749 2.25954 96.1838 2.25954 96.6368 3.17743L98.7939 7.54808L103.617 8.24895C104.63 8.39614 105.035 9.64099 104.302 10.3554L100.811 13.7575L101.635 18.5614C101.808 19.5702 100.749 20.3396 99.8434 19.8632L95.5293 17.5952L91.2153 19.8632C90.3092 20.3396 89.2503 19.5702 89.4234 18.5614L90.2473 13.7575L86.7571 10.3554C86.0241 9.64099 86.4286 8.39614 87.4416 8.24895L92.2649 7.54808L94.4219 3.17743Z" fill="#F0E700"/>
<path d="M122.376 3.17743C122.829 2.25954 124.138 2.25954 124.591 3.17743L126.748 7.54808L131.571 8.24895C132.584 8.39614 132.989 9.64099 132.256 10.3554L128.765 13.7575L129.589 18.5614C129.762 19.5702 128.704 20.3396 127.798 19.8632L123.483 17.5952L119.169 19.8632C118.263 20.3396 117.204 19.5702 117.377 18.5614L118.201 13.7575L114.711 10.3554C113.978 9.64099 114.383 8.39614 115.396 8.24895L120.219 7.54808L122.376 3.17743Z" fill="#212121"/>
</svg>
