<?xml version="1.0" encoding="UTF-8"?><svg id="Layer_1" xmlns="http://www.w3.org/2000/svg" viewBox="0 0 429 221.44"><defs><style>.cls-1{fill:rgba(68,107,244,.2);fill-rule:evenodd;}</style></defs><path class="cls-1" d="m29.5,0C13.21,0,0,13.21,0,29.5v162.43c0,16.29,13.21,29.5,29.5,29.5h345.73c7.75,0,14.8-2.99,20.06-7.87.47-.43,1.12-.61,1.73-.44l29.72,8.16c1.5.41,2.77-1.18,2.03-2.55l-18.13-33.48c-.17-.31-.42-.56-.73-.72l-4.24-2.25c-.58-.31-.94-.91-.94-1.56V29.5c0-16.29-13.21-29.5-29.5-29.5H29.5Z"/></svg>