<svg width="652" height="411" viewBox="0 0 652 411" fill="none" xmlns="http://www.w3.org/2000/svg">
<g filter="url(#filter0_b_18_5243)">
<path fill-rule="evenodd" clip-rule="evenodd" d="M42.0486 0.0759277C19.0172 0.0759277 0.346527 18.7466 0.346527 41.778V368.374C0.346527 391.405 19.0172 410.076 42.0485 410.076H572.57C584.728 410.076 595.671 404.873 603.294 396.572C603.987 395.818 605.053 395.513 606.025 395.839L648.349 410.028C650.413 410.72 652.314 408.63 651.432 406.641L623.151 342.891C622.954 342.447 622.631 342.069 622.223 341.805L615.415 337.4C614.702 336.939 614.272 336.148 614.272 335.299V41.778C614.272 18.7466 595.602 0.0759277 572.57 0.0759277H42.0486Z" fill="#04B1FF" fill-opacity="0.18"/>
</g>
<defs>
<filter id="filter0_b_18_5243" x="-8.82792" y="-9.09852" width="669.656" height="428.436" filterUnits="userSpaceOnUse" color-interpolation-filters="sRGB">
<feFlood flood-opacity="0" result="BackgroundImageFix"/>
<feGaussianBlur in="BackgroundImageFix" stdDeviation="4.58722"/>
<feComposite in2="SourceAlpha" operator="in" result="effect1_backgroundBlur_18_5243"/>
<feBlend mode="normal" in="SourceGraphic" in2="effect1_backgroundBlur_18_5243" result="shape"/>
</filter>
</defs>
</svg>
