<svg width="25" height="24" viewBox="0 0 25 24" fill="none" xmlns="http://www.w3.org/2000/svg">
<path d="M21.4519 3.0481C20.0543 1.65058 17.7885 1.65064 16.3911 3.04825L4.44103 14.9997C4.0347 15.4061 3.7491 15.9172 3.616 16.4762L2.52041 21.0777C2.46009 21.3311 2.53552 21.5976 2.71968 21.7817C2.90385 21.9659 3.17037 22.0413 3.42373 21.981L8.02498 20.8855C8.58418 20.7523 9.09546 20.4666 9.50191 20.0601L21.452 8.10861C22.8493 6.71112 22.8493 4.4455 21.4519 3.0481ZM17.4518 4.10884C18.2634 3.29709 19.5795 3.29705 20.3912 4.10876C21.2028 4.9204 21.2029 6.23632 20.3913 7.04801L19.5 7.93946L16.5606 5.00012L17.4518 4.10884ZM15.5 6.06084L18.4394 9.00018L8.44119 18.9995C8.23104 19.2097 7.96668 19.3574 7.67755 19.4263L4.26191 20.2395L5.07521 16.8237C5.14402 16.5346 5.29168 16.2704 5.50175 16.0603L15.5 6.06084Z" fill="#686868"/>
</svg>
