<svg width="27" height="26" viewBox="0 0 27 26" fill="none" xmlns="http://www.w3.org/2000/svg">
<path fill-rule="evenodd" clip-rule="evenodd" d="M0.600098 4.42094C0.600098 2.36668 2.26676 0.700012 4.32103 0.700012H8.04196V8.09149C8.04196 8.61086 8.64273 8.90156 9.04971 8.57598L11.1427 6.90156L13.2358 8.57598C13.6427 8.90156 14.2435 8.61086 14.2435 8.09149V0.700012H16.7241C17.4102 0.700012 17.9644 1.25428 17.9644 1.94032V10.8551H11.104C10.4179 10.8551 9.86366 11.4093 9.86366 12.0954C9.86366 12.7814 10.4179 13.3357 11.104 13.3357V15.5837H4.32103C3.63498 15.5837 3.08072 16.138 3.08072 16.824C3.08072 17.5101 3.63498 18.0644 4.32103 18.0644H11.104V20.545H4.32103C2.26676 20.545 0.600098 18.8783 0.600098 16.824V4.42094ZM11 12.2041C11 11.6775 11.4254 11.252 11.952 11.252H13.8561H15.7601H17.6642C18.1908 11.252 18.6162 11.6775 18.6162 12.2041C18.6162 12.7307 18.1908 13.1561 17.6642 13.1561V16.5388C17.5809 16.5953 17.5035 16.6608 17.4321 16.7322C16.7806 17.3837 16.7806 18.4369 17.4321 19.0885C17.4381 19.0944 17.4351 19.1063 17.4262 19.1063C16.5069 19.1063 15.7601 19.8531 15.7601 20.7724C15.7601 21.6917 16.5069 22.4385 17.4262 22.4385C17.4351 22.4385 17.4381 22.4504 17.4321 22.4563C17.1108 22.7776 16.9472 23.1971 16.9442 23.6196C16.4206 24.2086 15.659 24.5805 14.8081 24.5805C13.2313 24.5805 11.952 23.3012 11.952 21.7244V13.1561C11.4254 13.1561 11 12.7307 11 12.2041ZM13.8561 13.1561V16.0122H15.7601V13.1561H13.8561ZM18.1075 23.1287C18.7114 22.5218 18.283 21.4864 17.4262 21.4864C17.0305 21.4864 16.7122 21.1681 16.7122 20.7724C16.7122 20.3767 17.0305 20.0584 17.4262 20.0584C18.283 20.0584 18.7144 19.023 18.1075 18.4161C17.8278 18.1394 17.8308 17.6872 18.1075 17.4075C18.3842 17.1279 18.8364 17.1279 19.1161 17.4075C19.723 18.0115 20.7583 17.5831 20.7583 16.7262C20.7583 16.3306 21.0767 16.0122 21.4723 16.0122C21.868 16.0122 22.1864 16.3306 22.1864 16.7262C22.1864 17.5831 23.2217 18.0115 23.8286 17.4075C24.1053 17.1279 24.5575 17.1309 24.8372 17.4075C25.1169 17.6842 25.1169 18.1364 24.8372 18.4161C24.2332 19.023 24.6617 20.0584 25.5185 20.0584C25.9142 20.0584 26.2325 20.3767 26.2325 20.7724C26.2325 21.1681 25.9142 21.4864 25.5185 21.4864C24.6617 21.4864 24.2332 22.5218 24.8372 23.1287C25.1169 23.4054 25.1139 23.8576 24.8372 24.1372C24.5605 24.4169 24.1083 24.4169 23.8286 24.1372C23.2217 23.5333 22.1864 23.9617 22.1864 24.8185C22.1864 25.2142 21.868 25.5326 21.4723 25.5326C21.0767 25.5326 20.7583 25.2142 20.7583 24.8185C20.7583 23.9617 19.723 23.5303 19.1161 24.1372C18.8394 24.4169 18.3872 24.4139 18.1075 24.1372C17.8278 23.8606 17.8278 23.4083 18.1075 23.1287ZM21.1935 19.1472C21.015 18.9686 20.7728 18.8683 20.5203 18.8683C20.2678 18.8683 20.0257 18.9686 19.8471 19.1472C19.6686 19.3257 19.5683 19.5679 19.5683 19.8204C19.5683 20.0729 19.6686 20.315 19.8471 20.4936C20.0257 20.6721 20.2678 20.7724 20.5203 20.7724C20.7728 20.7724 21.015 20.6721 21.1935 20.4936C21.372 20.315 21.4723 20.0729 21.4723 19.8204C21.4723 19.5679 21.372 19.3257 21.1935 19.1472ZM21.9195 21.2195C21.7856 21.3534 21.7104 21.5351 21.7104 21.7244C21.7104 21.9138 21.7856 22.0954 21.9195 22.2293C22.0534 22.3632 22.235 22.4385 22.4244 22.4385C22.6138 22.4385 22.7954 22.3632 22.9293 22.2293C23.0632 22.0954 23.1384 21.9138 23.1384 21.7244C23.1384 21.5351 23.0632 21.3534 22.9293 21.2195C22.7954 21.0856 22.6138 21.0104 22.4244 21.0104C22.235 21.0104 22.0534 21.0856 21.9195 21.2195Z" fill="white"/>
</svg>
