<svg width="31" height="32" viewBox="0 0 31 32" fill="none" xmlns="http://www.w3.org/2000/svg">
<path d="M15.5 0.774719C24.0606 0.774719 31 7.71562 31 16.2747C31 24.8338 24.0606 31.7747 15.5 31.7747C6.93935 31.7747 0 24.8338 0 16.2747C0 7.71562 6.93935 0.774719 15.5 0.774719ZM15.5 3.35857C8.37775 3.35857 2.58385 9.15247 2.58385 16.2747C2.58385 23.397 8.37775 29.1909 15.5 29.1909C22.6222 29.1909 28.4161 23.397 28.4161 16.2747C28.4161 9.15247 22.6222 3.35857 15.5 3.35857ZM15.5 21.6997C16.3561 21.6997 17.05 22.3937 17.05 23.2497C17.05 24.1058 16.3561 24.7997 15.5 24.7997C14.6439 24.7997 13.95 24.1058 13.95 23.2497C13.95 22.3937 14.6439 21.6997 15.5 21.6997ZM15.5 8.13722C17.8541 8.13722 19.7625 10.0456 19.7625 12.3997C19.7625 13.9665 19.3014 14.8394 18.1333 16.0555L17.872 16.3217C16.908 17.2856 16.6625 17.695 16.6625 18.5997C16.6625 19.2417 16.142 19.7622 15.5 19.7622C14.858 19.7622 14.3375 19.2417 14.3375 18.5997C14.3375 17.033 14.7986 16.16 15.9667 14.9439L16.228 14.6778C17.192 13.7138 17.4375 13.3045 17.4375 12.3997C17.4375 11.3297 16.5701 10.4622 15.5 10.4622C14.4968 10.4622 13.6718 11.2246 13.5726 12.2016L13.5625 12.3997C13.5625 13.0417 13.042 13.5622 12.4 13.5622C11.758 13.5622 11.2375 13.0417 11.2375 12.3997C11.2375 10.0456 13.1459 8.13722 15.5 8.13722Z" fill="#276766"/>
</svg>
