<svg width="96" height="96" viewBox="0 0 96 96" fill="none" xmlns="http://www.w3.org/2000/svg">
<path d="M48 8C70.0912 8 88 25.9086 88 48C88 70.0912 70.0912 88 48 88C25.9086 88 8 70.0912 8 48C8 25.9086 25.9086 8 48 8ZM48 14C29.2223 14 14 29.2223 14 48C14 66.7776 29.2223 82 48 82C66.7776 82 82 66.7776 82 48C82 29.2223 66.7776 14 48 14ZM48 28C49.6568 28 51 29.3432 51 31V45H65C66.6568 45 68 46.3432 68 48C68 49.6568 66.6568 51 65 51H51V65C51 66.6568 49.6568 68 48 68C46.3432 68 45 66.6568 45 65V51H31C29.3432 51 28 49.6568 28 48C28 46.3432 29.3432 45 31 45H45V31C45 29.3432 46.3432 28 48 28Z" fill="#207599"/>
</svg>
