<svg width="99" height="95" viewBox="0 0 99 95" fill="none" xmlns="http://www.w3.org/2000/svg">
<path d="M43.1736 9.98052C44.8791 7.70259 48.1096 7.09949 50.389 8.63347L87.217 33.4172C89.8174 35.1672 89.9923 38.8554 87.5796 41.0658L85.2531 43.1973C85.018 43.4127 84.8029 43.6475 84.6106 43.8988L56.8328 80.1936C56.5522 80.5602 56.3221 80.9592 56.1487 81.3797L55.3375 83.347C54.0681 86.4257 50.1783 87.6562 47.4721 85.8351L10.9759 61.2745C8.69643 59.7405 8.23118 56.6504 9.9367 54.3724L43.1736 9.98052Z" fill="#8EEBFF"/>
<path fill-rule="evenodd" clip-rule="evenodd" d="M49.4871 6.58561C47.2077 5.05163 43.9772 5.65472 42.2717 7.93266L9.03493 52.3247C7.32942 54.6026 7.79468 57.6928 10.0741 59.2267L46.5704 83.7873C49.2765 85.6084 53.1663 84.378 54.4358 81.2992L55.2469 79.332C55.4203 78.9114 55.6504 78.5125 55.931 78.1459L83.7088 41.851C83.9011 41.5997 84.1161 41.3649 84.3512 41.1495L86.6778 39.018C89.0904 36.8076 88.9156 33.1194 86.3151 31.3694L49.4871 6.58561ZM50.1446 18.6402C49.01 17.8766 47.4019 18.1768 46.5529 19.3107C45.7039 20.4447 45.9355 21.9829 47.0702 22.7465L70.3144 38.389C71.4491 39.1526 73.0572 38.8523 73.9061 37.7184C74.7551 36.5845 74.5235 35.0462 73.3888 34.2826L50.1446 18.6402ZM41.6194 26.9473C42.4684 25.8134 44.0765 25.5132 45.2112 26.2768L68.4554 41.9192C69.5901 42.6828 69.8217 44.2211 68.9727 45.355C68.1237 46.4889 66.5156 46.7891 65.3809 46.0255L42.1367 30.3831C41.002 29.6195 40.7704 28.0813 41.6194 26.9473ZM21.2863 47.3292C19.8209 46.3431 17.7442 46.7308 16.6478 48.1952L16.0789 48.9551C14.9825 50.4194 15.2816 52.406 16.7469 53.3921L48.9163 75.0408L53.4556 68.978L21.2863 47.3292Z" fill="white"/>
</svg>
