<svg width="31" height="32" viewBox="0 0 31 32" fill="none" xmlns="http://www.w3.org/2000/svg">
<path d="M6.01833 7.47869C5.98663 6.41636 6.82213 5.52948 7.88446 5.49778L22.6569 5.05701C23.8715 5.02077 24.8153 6.10553 24.6114 7.3035L24.4954 7.98466C24.4752 8.10318 24.4662 8.22333 24.4684 8.34354L24.7452 23.1691C24.7484 23.3445 24.7757 23.5185 24.8261 23.6865L24.924 24.0129C25.2878 25.2248 24.4031 26.4519 23.1383 26.4897L8.52381 26.9257C7.46148 26.9574 6.5746 26.1219 6.5429 25.0596L6.01833 7.47869Z" fill="#8EEBFF"/>
<path fill-rule="evenodd" clip-rule="evenodd" d="M7.1997 5.12933C6.13737 5.16103 5.30187 6.04792 5.33357 7.11025L5.85814 24.6912C5.88984 25.7535 6.77672 26.589 7.83905 26.5573L22.4536 26.1212C23.7183 26.0835 24.6031 24.8563 24.2393 23.6444L24.1413 23.3181C24.0909 23.1501 24.0637 22.976 24.0604 22.8007L23.7837 7.97509C23.7814 7.85488 23.7905 7.73473 23.8106 7.61621L23.9266 6.93505C24.1305 5.73708 23.1868 4.65232 21.9721 4.68856L7.1997 5.12933ZM9.7293 8.20121C9.26772 8.21498 8.90471 8.60033 8.91848 9.0619C8.93225 9.52348 9.3176 9.88649 9.77917 9.87272L19.4379 9.58453C19.8995 9.57076 20.2625 9.18541 20.2488 8.72383C20.235 8.26226 19.8496 7.89924 19.3881 7.91302L9.7293 8.20121ZM9.22339 12.0208C9.20961 11.5592 9.57263 11.1739 10.0342 11.1601L19.693 10.8719C20.1545 10.8581 20.5399 11.2211 20.5537 11.6827C20.5674 12.1443 20.2044 12.5296 19.7428 12.5434L10.0841 12.8316C9.6225 12.8454 9.23716 12.4824 9.22339 12.0208ZM8.23549 21.2797C7.55399 21.3 7.018 21.869 7.03834 22.5505C7.05867 23.232 7.62762 23.768 8.30913 23.7476L21.4994 23.3541L21.4258 20.8861L8.23549 21.2797Z" fill="#002C44"/>
</svg>
