<svg width="36" height="36" viewBox="0 0 36 36" fill="none" xmlns="http://www.w3.org/2000/svg">
<path d="M14.5 -1.52588e-05C22.5082 -1.52588e-05 29 6.49187 29 14.5C29 17.9638 27.7854 21.1438 25.759 23.6376L35.5606 33.4394C36.1465 34.0252 36.1465 34.9748 35.5606 35.5606C35.0283 36.0932 34.1949 36.1416 33.6077 35.7058L33.4394 35.5606L23.6376 25.759C21.1438 27.7854 17.9638 29 14.5 29C6.49189 29 0 22.5082 0 14.5C0 6.49187 6.49189 -1.52588e-05 14.5 -1.52588e-05ZM14.5 2.99999C8.14873 2.99999 3 8.14872 3 14.5C3 20.8512 8.14873 26 14.5 26C20.8512 26 26 20.8512 26 14.5C26 8.14872 20.8512 2.99999 14.5 2.99999Z" fill="white"/>
</svg>
