<svg width="88" height="96" viewBox="0 0 88 96" fill="none" xmlns="http://www.w3.org/2000/svg">
<path d="M38.0661 10.5547C39.6271 8.23269 42.7076 7.71064 44.9464 9.38865L77.3074 33.6428C79.8401 35.541 80.1514 39.3564 77.9563 41.5962L75.8879 43.7067C75.6866 43.9121 75.5028 44.1356 75.3384 44.3747L50.3659 80.7146C50.1259 81.0637 49.9292 81.4438 49.7803 81.846L49.0553 83.8043C47.9008 86.9226 44.2483 88.0299 41.6185 86.059L9.55756 62.0297C7.31867 60.3517 6.76914 57.1091 8.33014 54.7871L38.0661 10.5547Z" fill="#8EEBFF"/>
<path fill-rule="evenodd" clip-rule="evenodd" d="M44.1288 7.34068C41.8899 5.66267 38.8095 6.18471 37.2485 8.5067L7.51245 52.7391C5.95146 55.0611 6.50099 58.3037 8.73988 59.9817L40.8008 84.011C43.4306 85.982 47.0831 84.8746 48.2376 81.7563L48.9626 79.7981C49.1115 79.3959 49.3082 79.0157 49.5482 78.6666L74.5208 42.3267C74.6851 42.0876 74.8689 41.8641 75.0702 41.6587L77.1386 39.5482C79.3337 37.3084 79.0225 33.493 76.4897 31.5948L44.1288 7.34068ZM44.4991 19.2357C43.4058 18.4163 41.9015 18.6712 41.1392 19.8052C40.3769 20.9391 40.6452 22.5226 41.7386 23.3421L62.3395 38.7822C63.4328 39.6016 64.9371 39.3467 65.6994 38.2128C66.4617 37.0788 66.1934 35.4953 65.1 34.6758L44.4991 19.2357ZM36.711 27.4415C37.4733 26.3075 38.9776 26.0526 40.0709 26.8721L60.6719 42.3122C61.7652 43.1316 62.0336 44.7151 61.2713 45.8491C60.509 46.983 59.0047 47.2379 57.9113 46.4185L37.3104 30.9784C36.217 30.1589 35.9487 28.5754 36.711 27.4415ZM18.6753 47.9913C17.236 46.9126 15.2557 47.2482 14.2522 48.7409L13.8103 49.3982C12.8068 50.8909 13.1601 52.9754 14.5994 54.0542L43.2603 75.5351L47.3362 69.4723L18.6753 47.9913Z" fill="white"/>
</svg>
