<svg width="28" height="31" viewBox="0 0 28 31" fill="none" xmlns="http://www.w3.org/2000/svg">
<path d="M5.64931 6.26871C5.64856 5.32603 6.41117 4.60041 7.35264 4.648L20.9608 5.33585C22.0259 5.38968 22.8309 6.39734 22.639 7.4364L22.4581 8.41548C22.4405 8.51076 22.4312 8.60781 22.4303 8.70555L22.2905 23.5609C22.2891 23.7036 22.3057 23.8469 22.3398 23.9873L22.5057 24.671C22.7699 25.7597 21.9576 26.7566 20.8517 26.7007L7.36971 26.0192C6.42823 25.9716 5.66441 25.1688 5.66365 24.2262L5.64931 6.26871Z" fill="#E0E0E0"/>
<path fill-rule="evenodd" clip-rule="evenodd" d="M6.73893 4.22952C5.79745 4.18193 5.03484 4.90755 5.0356 5.85023L5.04994 23.8077C5.05069 24.7504 5.81452 25.5531 6.756 25.6007L20.238 26.2822C21.3439 26.3381 22.1562 25.3412 21.892 24.2525L21.726 23.5688C21.692 23.4284 21.6754 23.2851 21.6768 23.1424L21.8166 8.28707C21.8175 8.18933 21.8268 8.09228 21.8444 7.99699L22.0252 7.01792C22.2172 5.97886 21.4121 4.9712 20.3471 4.91737L6.73893 4.22952ZM9.08103 7.48402C8.62127 7.46078 8.24885 7.81513 8.24922 8.27548C8.24959 8.73583 8.6226 9.12786 9.08237 9.1511L17.7453 9.58898C18.2051 9.61222 18.5775 9.25787 18.5771 8.79752C18.5767 8.33717 18.2037 7.94514 17.744 7.9219L9.08103 7.48402ZM8.44888 11.2429C8.44851 10.7826 8.82093 10.4282 9.28069 10.4514L17.9436 10.8893C18.4034 10.9126 18.7764 11.3046 18.7768 11.7649C18.7771 12.2253 18.4047 12.5797 17.945 12.5564L9.28203 12.1185C8.82226 12.0953 8.44925 11.7033 8.44888 11.2429ZM7.27602 20.38C6.67078 20.3494 6.18054 20.8159 6.18102 21.4219L6.18123 21.6888C6.18172 22.2948 6.67275 22.8108 7.27799 22.8414L19.3302 23.4506L19.3283 20.9892L7.27602 20.38Z" fill="#BEBEBE"/>
</svg>
