<svg width="607" height="201" viewBox="0 0 607 201" fill="none" xmlns="http://www.w3.org/2000/svg">
<path d="M1 170.598C1 170.598 57.1885 139.744 95.5 131.745C137.103 123.059 167.942 72.412 210 68.453C250.948 64.5985 292.529 82.6438 332 68.453C368.919 55.1799 393.094 12.2861 431 4.53413C476.871 -4.84671 504.942 5.40993 549 23.9605C580.869 37.379 605.5 68.453 605.5 68.453" stroke="white" stroke-opacity="0.52" stroke-width="1.5"/>
<path d="M1 180.399C1 180.399 57.1885 149.545 95.5 141.546C137.103 132.86 167.942 82.2127 210 78.2537C250.948 74.3991 292.529 92.4444 332 78.2537C368.919 64.9806 393.094 22.0868 431 14.3348C476.871 4.95395 504.942 15.2106 549 33.7611C580.869 47.1797 605.5 78.2536 605.5 78.2536" stroke="white" stroke-opacity="0.52" stroke-width="1.5"/>
<path d="M1 190.199C1 190.199 57.1885 159.346 95.5 151.347C137.103 142.66 167.942 92.0134 210 88.0544C250.948 84.1999 292.529 102.245 332 88.0544C368.919 74.7813 393.094 31.8875 431 24.1355C476.871 14.7547 504.942 25.0113 549 43.5618C580.869 56.9804 605.5 88.0544 605.5 88.0544" stroke="white" stroke-opacity="0.52" stroke-width="1.5"/>
<path d="M1 200C1 200 57.1885 169.146 95.5 161.147C137.103 152.461 167.942 101.814 210 97.855C250.948 94.0005 292.529 112.046 332 97.855C368.919 84.5819 393.094 41.6882 431 33.9362C476.871 24.5553 504.942 34.812 549 53.3625C580.869 66.7811 605.5 97.855 605.5 97.855" stroke="white" stroke-opacity="0.52" stroke-width="1.5"/>
</svg>
