<svg width="702" height="190" viewBox="0 0 702 190" fill="none" xmlns="http://www.w3.org/2000/svg">
<path d="M1 161.324C1 161.324 66.0188 132.281 110.351 124.751C158.493 116.575 194.178 68.9006 242.845 65.174C290.228 61.5457 338.344 78.5318 384.018 65.174C426.739 52.6799 454.713 12.3037 498.577 5.0067C551.656 -3.82355 584.139 5.83109 635.121 23.2928C671.999 35.9238 700.5 65.1739 700.5 65.1739" stroke="#C7FFFF" stroke-width="1.5"/>
<path d="M1 170.549C1 170.549 66.0188 141.506 110.351 133.977C158.493 125.8 194.178 78.126 242.845 74.3993C290.228 70.771 338.344 87.7572 384.018 74.3993C426.739 61.9052 454.713 21.5291 498.577 14.232C551.656 5.40179 584.139 15.0564 635.121 32.5182C671.999 45.1491 700.5 74.3993 700.5 74.3993" stroke="#C7FFFF" stroke-width="1.5"/>
<path d="M1 179.775C1 179.775 66.0188 150.732 110.351 143.202C158.493 135.026 194.178 87.3515 242.845 83.6249C290.228 79.9966 338.344 96.9828 384.018 83.6249C426.739 71.1308 454.713 30.7546 498.577 23.4576C551.656 14.6274 584.139 24.282 635.121 41.7438C671.999 54.3747 700.5 83.6249 700.5 83.6249" stroke="#C7FFFF" stroke-width="1.5"/>
<path d="M1 189C1 189 66.0188 159.957 110.351 152.428C158.493 144.251 194.178 96.5769 242.845 92.8502C290.228 89.2219 338.344 106.208 384.018 92.8502C426.739 80.3562 454.713 39.98 498.577 32.683C551.656 23.8527 584.139 33.5074 635.121 50.9691C671.999 63.6001 700.5 92.8502 700.5 92.8502" stroke="#C7FFFF" stroke-width="1.5"/>
</svg>
