<svg width="29" height="31" viewBox="0 0 29 31" fill="none" xmlns="http://www.w3.org/2000/svg">
<path d="M5.89931 6.26871C5.89856 5.32603 6.66117 4.60042 7.60264 4.64801L21.2108 5.33585C22.2759 5.38969 23.0809 6.39735 22.889 7.4364L22.7081 8.41548C22.6905 8.51077 22.6812 8.60781 22.6803 8.70555L22.5405 23.5609C22.5391 23.7036 22.5557 23.8469 22.5898 23.9873L22.7557 24.671C23.0199 25.7597 22.2076 26.7566 21.1017 26.7007L7.61971 26.0192C6.67823 25.9716 5.91441 25.1688 5.91365 24.2262L5.89931 6.26871Z" fill="#E0E0E0"/>
<path fill-rule="evenodd" clip-rule="evenodd" d="M6.98893 4.22952C6.04745 4.18194 5.28484 4.90755 5.2856 5.85023L5.29994 23.8077C5.30069 24.7504 6.06452 25.5531 7.006 25.6007L20.488 26.2822C21.5939 26.3381 22.4062 25.3412 22.142 24.2525L21.9761 23.5688C21.942 23.4284 21.9254 23.2851 21.9268 23.1424L22.0666 8.28707C22.0675 8.18933 22.0768 8.09228 22.0944 7.997L22.2752 7.01792C22.4672 5.97886 21.6622 4.97121 20.5971 4.91737L6.98893 4.22952ZM9.33103 7.48402C8.87127 7.46078 8.49885 7.81513 8.49922 8.27549C8.49959 8.73584 8.8726 9.12787 9.33237 9.15111L17.9953 9.58899C18.4551 9.61223 18.8275 9.25788 18.8271 8.79753C18.8267 8.33717 18.4537 7.94514 17.994 7.9219L9.33103 7.48402ZM8.69888 11.2429C8.69851 10.7826 9.07093 10.4282 9.53069 10.4514L18.1936 10.8893C18.6534 10.9126 19.0264 11.3046 19.0268 11.765C19.0271 12.2253 18.6547 12.5797 18.195 12.5564L9.53203 12.1185C9.07226 12.0953 8.69925 11.7033 8.69888 11.2429ZM7.52602 20.38C6.92078 20.3494 6.43054 20.8159 6.43102 21.4219L6.43123 21.6888C6.43172 22.2948 6.92275 22.8108 7.52799 22.8414L19.5802 23.4506L19.5783 20.9892L7.52602 20.38Z" fill="#BEBEBE"/>
</svg>
