<svg width="31" height="33" viewBox="0 0 31 33" fill="none" xmlns="http://www.w3.org/2000/svg">
<path d="M6.01833 7.80828C5.98663 6.74595 6.82213 5.85907 7.88446 5.82737L22.6569 5.3866C23.8715 5.35036 24.8153 6.43512 24.6114 7.63309L24.4954 8.31425C24.4752 8.43277 24.4662 8.55292 24.4684 8.67313L24.7452 23.4987C24.7484 23.6741 24.7757 23.8481 24.8261 24.0161L24.924 24.3425C25.2878 25.5544 24.4031 26.7815 23.1383 26.8193L8.52381 27.2553C7.46148 27.287 6.5746 26.4515 6.5429 25.3892L6.01833 7.80828Z" fill="#8EEBFF"/>
<path fill-rule="evenodd" clip-rule="evenodd" d="M7.1997 5.45889C6.13737 5.49059 5.30187 6.37748 5.33357 7.43981L5.85814 25.0207C5.88984 26.0831 6.77672 26.9185 7.83905 26.8869L22.4536 26.4508C23.7183 26.4131 24.6031 25.1859 24.2393 23.974L24.1413 23.6476C24.0909 23.4797 24.0637 23.3056 24.0604 23.1302L23.7837 8.30465C23.7814 8.18444 23.7905 8.06429 23.8106 7.94577L23.9266 7.26461C24.1305 6.06664 23.1868 4.98188 21.9721 5.01812L7.1997 5.45889ZM9.7293 8.53077C9.26772 8.54454 8.90471 8.92989 8.91848 9.39146C8.93225 9.85304 9.3176 10.2161 9.77917 10.2023L19.4379 9.91409C19.8995 9.90031 20.2625 9.51497 20.2488 9.05339C20.235 8.59182 19.8496 8.2288 19.3881 8.24257L9.7293 8.53077ZM9.22339 12.3503C9.20961 11.8888 9.57263 11.5034 10.0342 11.4897L19.693 11.2015C20.1545 11.1877 20.5399 11.5507 20.5537 12.0123C20.5674 12.4739 20.2044 12.8592 19.7428 12.873L10.0841 13.1612C9.6225 13.1749 9.23716 12.8119 9.22339 12.3503ZM8.23549 21.6092C7.55399 21.6296 7.018 22.1985 7.03834 22.88C7.05867 23.5615 7.62762 24.0975 8.30913 24.0772L21.4994 23.6836L21.4258 21.2157L8.23549 21.6092Z" fill="#002C44"/>
</svg>
