<svg width="652" height="411" viewBox="0 0 652 411" fill="none" xmlns="http://www.w3.org/2000/svg">
<g filter="url(#filter0_b_35_208)">
<path fill-rule="evenodd" clip-rule="evenodd" d="M42.0486 0.333252C19.0172 0.333252 0.346558 19.0039 0.346558 42.0353V368.631C0.346558 391.663 19.0172 410.333 42.0486 410.333H572.57C584.728 410.333 595.671 405.13 603.294 396.83C603.987 396.075 605.053 395.77 606.025 396.096L648.349 410.286C650.413 410.977 652.314 408.888 651.432 406.899L623.151 343.149C622.954 342.704 622.631 342.327 622.223 342.063L615.415 337.657C614.702 337.196 614.272 336.405 614.272 335.556V42.0353C614.272 19.0039 595.602 0.333252 572.57 0.333252H42.0486Z" fill="#C6EEFF" fill-opacity="0.72"/>
</g>
<defs>
<filter id="filter0_b_35_208" x="-12.1534" y="-12.1667" width="676.307" height="435.087" filterUnits="userSpaceOnUse" color-interpolation-filters="sRGB">
<feFlood flood-opacity="0" result="BackgroundImageFix"/>
<feGaussianBlur in="BackgroundImageFix" stdDeviation="6.25"/>
<feComposite in2="SourceAlpha" operator="in" result="effect1_backgroundBlur_35_208"/>
<feBlend mode="normal" in="SourceGraphic" in2="effect1_backgroundBlur_35_208" result="shape"/>
</filter>
</defs>
</svg>
