<svg width="46" height="46" viewBox="0 0 46 46" fill="none" xmlns="http://www.w3.org/2000/svg">
<circle cx="23" cy="23" r="22.25" fill="url(#paint0_linear_186_163)" fill-opacity="0.99" stroke="#00FFFA" stroke-width="0.5"/>
<path d="M10.4285 33.4533H9.42853C9.42853 33.6932 9.51477 33.9251 9.67153 34.1067L10.4285 33.4533ZM10.4285 10.4287L11.1031 9.69052C10.8106 9.42319 10.3878 9.35382 10.0252 9.51367C9.66254 9.67352 9.42853 10.0324 9.42853 10.4287H10.4285ZM23 21.9171L22.3254 22.6553C22.7074 23.0044 23.2926 23.0044 23.6746 22.6553L23 21.9171ZM35.5714 10.4287H36.5714C36.5714 10.0324 36.3374 9.67352 35.9748 9.51367C35.6121 9.35382 35.1893 9.42319 34.8968 9.69052L35.5714 10.4287ZM35.5714 33.4533L36.3284 34.1067C36.4851 33.9251 36.5714 33.6932 36.5714 33.4533H35.5714ZM11.4285 33.4533V27.1675H9.42853V33.4533H11.4285ZM9.75393 11.1669L22.3254 22.6553L23.6746 21.1789L11.1031 9.69052L9.75393 11.1669ZM23.6746 22.6553L36.246 11.1669L34.8968 9.69052L22.3254 21.1789L23.6746 22.6553ZM34.5714 10.4287V17.739H36.5714V10.4287H34.5714ZM34.5714 27.1675V33.4533H36.5714V27.1675H34.5714ZM35.5714 33.4533C34.8144 32.7998 34.8145 32.7997 34.8146 32.7996C34.8146 32.7996 34.8146 32.7996 34.8146 32.7996C34.8146 32.7996 34.8145 32.7997 34.8142 32.8C34.8138 32.8005 34.8129 32.8015 34.8116 32.803C34.8091 32.8059 34.8049 32.8107 34.7992 32.8173C34.7877 32.8304 34.7699 32.8507 34.746 32.8776C34.6981 32.9315 34.6259 33.0121 34.5312 33.1155C34.3417 33.3224 34.0627 33.6203 33.7092 33.9788C33.0009 34.6971 31.9999 35.6527 30.8264 36.6055C29.6501 37.5606 28.3199 38.4971 26.9537 39.1912C25.58 39.889 24.231 40.3104 23 40.3104V42.3104C24.6636 42.3104 26.3334 41.7496 27.8596 40.9743C29.3934 40.1951 30.8442 39.1673 32.0871 38.1581C33.3327 37.1467 34.389 36.1379 35.1333 35.383C35.5061 35.005 35.8021 34.689 36.0061 34.4662C36.1082 34.3548 36.1873 34.2666 36.2417 34.2054C36.2688 34.1748 36.2898 34.1509 36.3043 34.1343C36.3116 34.126 36.3172 34.1195 36.3213 34.1149C36.3233 34.1126 36.3249 34.1107 36.3261 34.1094C36.3267 34.1087 36.3271 34.1081 36.3275 34.1077C36.3277 34.1074 36.3279 34.1072 36.328 34.1071C36.3282 34.1069 36.3284 34.1067 35.5714 33.4533ZM23 40.3104C21.7689 40.3104 20.4199 39.889 19.0462 39.1912C17.68 38.4971 16.3499 37.5606 15.1735 36.6055C14 35.6527 12.999 34.6971 12.2908 33.9788C11.9372 33.6203 11.6582 33.3224 11.4687 33.1155C11.374 33.0121 11.3018 32.9315 11.2539 32.8776C11.23 32.8507 11.2122 32.8304 11.2007 32.8173C11.195 32.8107 11.1908 32.8059 11.1883 32.803C11.187 32.8015 11.1861 32.8005 11.1857 32.8C11.1855 32.7997 11.1853 32.7996 11.1853 32.7996C11.1853 32.7996 11.1853 32.7996 11.1853 32.7996C11.1854 32.7997 11.1855 32.7998 10.4285 33.4533C9.67153 34.1067 9.67169 34.1069 9.67187 34.1071C9.67197 34.1072 9.67218 34.1074 9.67238 34.1077C9.67276 34.1081 9.67326 34.1087 9.67385 34.1094C9.67504 34.1107 9.67664 34.1126 9.67865 34.1149C9.68267 34.1195 9.68833 34.126 9.6956 34.1343C9.71013 34.1509 9.7311 34.1748 9.75826 34.2054C9.81258 34.2666 9.89172 34.3548 9.99377 34.4662C10.1978 34.689 10.4938 35.005 10.8666 35.383C11.6109 36.1379 12.6672 37.1467 13.9129 38.1581C15.1557 39.1673 16.6066 40.1951 18.1403 40.9743C19.6665 41.7496 21.3363 42.3104 23 42.3104V40.3104ZM9.42853 10.4287V17.739H11.4285V10.4287H9.42853Z" fill="#00FFFA"/>
<circle cx="10.4285" cy="22.4525" r="5.28571" stroke="#5CFFFC" stroke-width="2"/>
<path d="M18.2856 28.7385L22.9999 30M27.7142 28.7385L22.9999 30M22.9999 30V40.9544" stroke="url(#paint1_linear_186_163)" stroke-width="2" stroke-linecap="round"/>
<path d="M12 22.4534C12 23.3213 11.2965 24.5717 10.4287 24.5717C9.56078 24.5717 8.85718 23.3213 8.85718 22.4534C8.85718 21.5855 9.56078 19.8574 10.4287 19.8574C11.2965 19.8574 12 21.5855 12 22.4534Z" fill="#00FFFA"/>
<circle cx="35.5714" cy="22.4525" r="5.28571" stroke="#5CFFFC" stroke-width="2"/>
<path d="M37.1429 22.4534C37.1429 23.3213 36.4394 24.5717 35.5715 24.5717C34.7036 24.5717 34 23.3213 34 22.4534C34 21.5855 34.7036 19.8574 35.5715 19.8574C36.4394 19.8574 37.1429 21.5855 37.1429 22.4534Z" fill="#00FFFA"/>
<defs>
<linearGradient id="paint0_linear_186_163" x1="-4" y1="-2.5" x2="45" y2="43" gradientUnits="userSpaceOnUse">
<stop stop-color="#00A2AC"/>
<stop offset="1" stop-color="#0891C5" stop-opacity="0"/>
</linearGradient>
<linearGradient id="paint1_linear_186_163" x1="22.9999" y1="28.7385" x2="22.9999" y2="40.9544" gradientUnits="userSpaceOnUse">
<stop offset="0.55" stop-color="#5CFFFC"/>
<stop offset="1" stop-color="#65FFFC" stop-opacity="0"/>
</linearGradient>
</defs>
</svg>
