<svg width="31" height="32" viewBox="0 0 31 32" fill="none" xmlns="http://www.w3.org/2000/svg">
<path fill-rule="evenodd" clip-rule="evenodd" d="M5.47153 0.736368C4.67482 -0.129303 3.27346 -0.248953 2.34152 0.469121C1.40958 1.1872 1.29996 2.47107 2.09668 3.33674L12.9779 15.1597L0.573216 27.8451C-0.249332 28.6863 -0.178164 29.9724 0.732175 30.7176C1.64251 31.4629 3.0473 31.3852 3.86984 30.544L15.8558 18.2867L27.0914 30.4947C27.8882 31.3604 29.2895 31.4801 30.2215 30.762C31.1534 30.0439 31.263 28.76 30.4663 27.8944L18.8273 15.248L30.4268 3.38599C31.2493 2.54483 31.1782 1.25877 30.2678 0.513501C29.3575 -0.231769 27.9527 -0.154033 27.1302 0.687134L15.9493 12.121L5.47153 0.736368Z" fill="#D83D3D"/>
</svg>
