<svg width="26" height="25" viewBox="0 0 26 25" fill="none" xmlns="http://www.w3.org/2000/svg">
<path d="M11.1155 1.78155C11.1155 1.2628 10.695 0.842255 10.1762 0.842255C9.6575 0.842255 9.23696 1.2628 9.23696 1.78155V2.72348C9.23696 3.51557 9.48206 4.25041 9.90057 4.85629C8.15618 5.45622 6.87627 7.05468 6.74356 8.96899H6.43467L6.42302 8.96896C4.86676 8.96252 3.61037 7.69572 3.61681 6.13946L3.6245 4.2789C3.62664 3.76015 3.20786 3.33788 2.6891 3.33574C2.17035 3.33359 1.74808 3.75239 1.74594 4.27114L1.73824 6.13169C1.72752 8.72546 3.82149 10.8368 6.41526 10.8475L6.43467 10.8476H6.73217V12.7383H1.40951C0.890755 12.7383 0.470215 13.1588 0.470215 13.6776C0.470215 14.1963 0.890755 14.6169 1.40951 14.6169H6.73217V17.112H6.43467H6.41526C3.82149 17.1228 1.72752 19.2342 1.73824 21.8279L1.74594 23.6884C1.74808 24.2072 2.17035 24.626 2.6891 24.6239C3.20786 24.6217 3.62664 24.1994 3.6245 23.6807L3.61681 21.8201C3.61037 20.2639 4.86676 18.9971 6.42302 18.9906H6.43467H7.01563C7.81039 21.5365 10.1865 23.3842 12.9941 23.3842C15.8017 23.3842 18.1779 21.5365 18.9727 18.9906H19.5535H19.5652C21.1215 18.9971 22.3779 20.2639 22.3714 21.8201L22.3638 23.6807C22.3616 24.1994 22.7804 24.6217 23.2992 24.6239C23.8179 24.626 24.2402 24.2072 24.2424 23.6884L24.25 21.8279C24.2608 19.2342 22.1668 17.1228 19.5729 17.112H19.5535H19.2561V14.6169H24.5805C25.0992 14.6169 25.5198 14.1963 25.5198 13.6776C25.5198 13.1588 25.0992 12.7383 24.5805 12.7383H19.2561V10.8476H19.5535L19.5729 10.8475C22.1668 10.8368 24.2608 8.72546 24.25 6.13169L24.2424 4.27114C24.2402 3.75239 23.8179 3.33359 23.2992 3.33574C22.7804 3.33788 22.3616 3.76015 22.3638 4.2789L22.3714 6.13946C22.3779 7.69572 21.1215 8.96252 19.5652 8.96896L19.5535 8.96899H19.2447C19.1119 7.05468 17.8321 5.45622 16.0877 4.85631C16.5062 4.25043 16.7513 3.51558 16.7513 2.72348V1.78155C16.7513 1.2628 16.3308 0.842255 15.812 0.842255C15.2933 0.842255 14.8727 1.2628 14.8727 1.78155V2.72348C14.8727 3.761 14.0316 4.60207 12.9941 4.60207C11.9566 4.60207 11.1155 3.761 11.1155 2.72348V1.78155ZM8.61076 9.29858C8.61076 7.74231 9.87237 6.4807 11.4286 6.4807H14.5596C16.1158 6.4807 17.3775 7.74231 17.3775 9.29858V17.1223C17.3775 19.5432 15.415 21.5057 12.9941 21.5057C10.5733 21.5057 8.61076 19.5432 8.61076 17.1223V9.29858Z" fill="#212121"/>
</svg>
