<svg width="21" height="21" viewBox="0 0 21 21" fill="none" xmlns="http://www.w3.org/2000/svg">
<path d="M10.75 0.749153C16.2728 0.749153 20.75 5.2263 20.75 10.7492C20.75 16.272 16.2728 20.7492 10.75 20.7492C9.1317 20.7492 7.56782 20.3638 6.16286 19.6372L2.33704 20.7045C1.67212 20.8902 0.98258 20.5017 0.79691 19.8368C0.73546 19.6168 0.73549 19.3841 0.79695 19.1643L1.86461 15.3414C1.13637 13.9352 0.75 12.3695 0.75 10.7492C0.75 5.2263 5.22715 0.749153 10.75 0.749153ZM10.75 2.24915C6.05558 2.24915 2.25 6.05473 2.25 10.7492C2.25 12.2188 2.62277 13.6326 3.32303 14.8867L3.47368 15.1564L2.36096 19.1406L6.34755 18.0284L6.61709 18.1787C7.87006 18.8773 9.2822 19.2492 10.75 19.2492C15.4444 19.2492 19.25 15.4436 19.25 10.7492C19.25 6.05473 15.4444 2.24915 10.75 2.24915ZM7.5 11.7492H11.9983C12.4125 11.7492 12.7483 12.085 12.7483 12.4992C12.7483 12.8789 12.4661 13.1927 12.1 13.2424L11.9983 13.2492H7.5C7.08579 13.2492 6.75 12.9134 6.75 12.4992C6.75 12.1195 7.03215 11.8057 7.39823 11.756L7.5 11.7492ZM7.5 8.24915H14.0045C14.4187 8.24915 14.7545 8.58494 14.7545 8.99915C14.7545 9.37885 14.4723 9.69265 14.1063 9.74235L14.0045 9.74915H7.5C7.08579 9.74915 6.75 9.41335 6.75 8.99915C6.75 8.61945 7.03215 8.30566 7.39823 8.256L7.5 8.24915Z" fill="white"/>
</svg>
