<svg width="67" height="64" viewBox="0 0 67 64" fill="none" xmlns="http://www.w3.org/2000/svg">
<path d="M65.8617 54.3589L52.3339 3.87272C51.9739 2.53452 51.0977 1.39381 49.8976 0.700925C48.6975 0.00804392 47.2715 -0.180396 45.9326 0.176962L35.8351 2.8825C35.7243 2.91221 35.6184 2.95085 35.511 2.98718C35.025 2.34662 34.3975 1.8271 33.6774 1.46921C32.9574 1.11132 32.1644 0.924757 31.3603 0.924089H20.9069C19.9885 0.924344 19.0867 1.16839 18.2935 1.6313C17.5004 1.16839 16.5985 0.924344 15.6802 0.924089H5.22672C3.841 0.925673 2.51248 1.47685 1.53262 2.4567C0.552765 3.43655 0.0015848 4.76506 0 6.15078V58.4177C0.0015848 59.8034 0.552765 61.1319 1.53262 62.1118C2.51248 63.0916 3.841 63.6428 5.22672 63.6444H15.6802C16.5985 63.6442 17.5004 63.4001 18.2935 62.9372C19.0867 63.4001 19.9885 63.6442 20.9069 63.6444H31.3603C32.7461 63.6428 34.0746 63.0916 35.0544 62.1118C36.0343 61.1319 36.5855 59.8034 36.587 58.4177V25.8825L45.6671 59.7697C45.8445 60.4329 46.1507 61.0546 46.5685 61.5994C46.9862 62.1441 47.5073 62.6012 48.1018 62.9444C48.6963 63.2877 49.3526 63.5104 50.0332 63.5999C50.7139 63.6893 51.4055 63.6438 52.0685 63.4658L62.1659 60.7602C63.504 60.4 64.6445 59.5238 65.3374 58.3237C66.0302 57.1237 66.2188 55.6978 65.8617 54.3589ZM47.2852 5.22533L49.3149 12.7983L39.2172 15.5039L37.1881 7.93119L47.2852 5.22533ZM31.3603 6.15078L31.3627 45.351H20.9069V6.15078H31.3603ZM15.6802 6.15078V13.9908H5.22672V6.15078H15.6802ZM31.3603 58.4177H20.9069V50.5777H31.363L31.3635 58.4177H31.3603ZM60.813 55.7115L50.7157 58.4171L48.6866 50.8443L58.7866 48.1379L60.8162 55.7106L60.813 55.7115Z" fill="#22FBF9"/>
</svg>
