<svg width="141" height="89" viewBox="0 0 141 89" fill="none" xmlns="http://www.w3.org/2000/svg">
<path d="M14.9167 44.9478C14.9167 47.8933 17.3045 50.2811 20.25 50.2811C23.1955 50.2811 25.5833 47.8933 25.5833 44.9478C25.5833 42.0022 23.1955 39.6144 20.25 39.6144C17.3045 39.6144 14.9167 42.0022 14.9167 44.9478ZM32.25 45.9478C32.8023 45.9478 33.25 45.5 33.25 44.9478C33.25 44.3955 32.8023 43.9478 32.25 43.9478V45.9478ZM20.25 45.9478H32.25V43.9478H20.25V45.9478Z" fill="#22FBF9"/>
<path d="M40.25 44.9478H46.25" stroke="#22FBF9" stroke-width="2" stroke-linecap="round"/>
<path d="M54.25 44.9478H59.25" stroke="#22FBF9" stroke-width="2" stroke-linecap="round"/>
<path d="M67.25 44.9478H72.25" stroke="#22FBF9" stroke-width="2" stroke-linecap="round"/>
<path d="M80.25 44.9478H84.25" stroke="#22FBF9" stroke-width="2" stroke-linecap="round"/>
<path d="M92.25 44.9478H96.25" stroke="#22FBF9" stroke-width="2" stroke-linecap="round"/>
<path opacity="0.71" d="M104.25 44.9478H108.25" stroke="#22FBF9" stroke-width="2" stroke-linecap="round"/>
<path opacity="0.5" d="M116.25 44.9478H120.25" stroke="#22FBF9" stroke-width="2" stroke-linecap="round"/>
</svg>
