<svg xmlns="http://www.w3.org/2000/svg" width="18" height="19" viewBox="0 0 18 19" fill="none">
  <path d="M1.34654 8.9832L0.530914 7.55234C0.207477 6.98281 0.235602 6.26914 0.689117 5.79453C2.15865 4.25469 5.08716 2.1875 9.00005 2.1875C12.9129 2.1875 15.8415 4.25469 17.311 5.79453C17.7645 6.26914 17.7926 6.98281 17.4692 7.55234L16.6571 8.9832C16.3934 9.44727 15.8379 9.66172 15.3282 9.49648L12.477 8.56133C12.0165 8.41016 11.7036 7.97773 11.7036 7.49258V5.5625C9.95982 4.92617 8.04732 4.92617 6.30357 5.5625V7.48906C6.30357 7.97422 5.99068 8.40664 5.53013 8.55781L2.67545 9.49297C2.16568 9.6582 1.61021 9.44375 1.34654 8.97969V8.9832ZM1.12505 12.3125C1.12505 12.0031 1.37818 11.75 1.68755 11.75H2.81255C3.12193 11.75 3.37505 12.0031 3.37505 12.3125V13.4375C3.37505 13.7469 3.12193 14 2.81255 14H1.68755C1.37818 14 1.12505 13.7469 1.12505 13.4375V12.3125ZM1.12505 15.6875C1.12505 15.3781 1.37818 15.125 1.68755 15.125H2.81255C3.12193 15.125 3.37505 15.3781 3.37505 15.6875V16.8125C3.37505 17.1219 3.12193 17.375 2.81255 17.375H1.68755C1.37818 17.375 1.12505 17.1219 1.12505 16.8125V15.6875ZM5.06255 11.75H6.18755C6.49693 11.75 6.75005 12.0031 6.75005 12.3125V13.4375C6.75005 13.7469 6.49693 14 6.18755 14H5.06255C4.75318 14 4.50005 13.7469 4.50005 13.4375V12.3125C4.50005 12.0031 4.75318 11.75 5.06255 11.75ZM7.87505 12.3125C7.87505 12.0031 8.12818 11.75 8.43755 11.75H9.56256C9.87193 11.75 10.1251 12.0031 10.1251 12.3125V13.4375C10.1251 13.7469 9.87193 14 9.56256 14H8.43755C8.12818 14 7.87505 13.7469 7.87505 13.4375V12.3125ZM11.8126 11.75H12.9376C13.2469 11.75 13.5001 12.0031 13.5001 12.3125V13.4375C13.5001 13.7469 13.2469 14 12.9376 14H11.8126C11.5032 14 11.2501 13.7469 11.2501 13.4375V12.3125C11.2501 12.0031 11.5032 11.75 11.8126 11.75ZM14.6251 12.3125C14.6251 12.0031 14.8782 11.75 15.1876 11.75H16.3126C16.6219 11.75 16.8751 12.0031 16.8751 12.3125V13.4375C16.8751 13.7469 16.6219 14 16.3126 14H15.1876C14.8782 14 14.6251 13.7469 14.6251 13.4375V12.3125ZM15.1876 15.125H16.3126C16.6219 15.125 16.8751 15.3781 16.8751 15.6875V16.8125C16.8751 17.1219 16.6219 17.375 16.3126 17.375H15.1876C14.8782 17.375 14.6251 17.1219 14.6251 16.8125V15.6875C14.6251 15.3781 14.8782 15.125 15.1876 15.125ZM4.50005 15.6875C4.50005 15.3781 4.75318 15.125 5.06255 15.125H12.9376C13.2469 15.125 13.5001 15.3781 13.5001 15.6875V16.8125C13.5001 17.1219 13.2469 17.375 12.9376 17.375H5.06255C4.75318 17.375 4.50005 17.1219 4.50005 16.8125V15.6875Z" fill="white"/>
</svg>