<svg xmlns="http://www.w3.org/2000/svg" width="48" height="48" viewBox="0 0 48 48" fill="none">
  <circle cx="24" cy="24" r="23" stroke="#22FBF9" stroke-width="2"/>
  <path d="M11.4287 34.4533H9.92871C9.92871 34.8131 10.0581 35.161 10.2932 35.4334L11.4287 34.4533ZM11.4287 11.4287L12.4406 10.3214C12.0018 9.92043 11.3676 9.81638 10.8237 10.0562C10.2797 10.2959 9.92871 10.8343 9.92871 11.4287H11.4287ZM24.0001 22.9171L22.9882 24.0244C23.5612 24.548 24.439 24.548 25.012 24.0244L24.0001 22.9171ZM36.5716 11.4287H38.0716C38.0716 10.8343 37.7205 10.2959 37.1766 10.0562C36.6327 9.81638 35.9985 9.92043 35.5597 10.3214L36.5716 11.4287ZM36.5716 34.4533L37.7071 35.4334C37.9422 35.161 38.0716 34.8131 38.0716 34.4533H36.5716ZM12.9287 34.4533V28.1675H9.92871V34.4533H12.9287ZM10.4168 12.536L22.9882 24.0244L25.012 21.8098L12.4406 10.3214L10.4168 12.536ZM25.012 24.0244L37.5835 12.536L35.5597 10.3214L22.9882 21.8098L25.012 24.0244ZM35.0716 11.4287V18.739H38.0716V11.4287H35.0716ZM35.0716 28.1675V34.4533H38.0716V28.1675H35.0716ZM36.5716 34.4533C35.4361 33.4731 35.4362 33.4729 35.4364 33.4728C35.4364 33.4727 35.4365 33.4726 35.4366 33.4726C35.4366 33.4725 35.4366 33.4725 35.4365 33.4727C35.4362 33.473 35.4355 33.4738 35.4344 33.475C35.4322 33.4775 35.4285 33.4819 35.4231 33.488C35.4124 33.5003 35.3953 33.5196 35.3722 33.5457C35.326 33.5978 35.2555 33.6764 35.1626 33.7778C34.9768 33.9807 34.702 34.2741 34.3533 34.6278C33.6541 35.3369 32.6668 36.2792 31.5114 37.2173C30.3517 38.159 29.0517 39.0726 27.7275 39.7454C26.3918 40.4239 25.1231 40.8104 24.0001 40.8104V43.8104C25.7719 43.8104 27.522 43.2147 29.0862 42.42C30.6619 41.6196 32.1429 40.569 33.4024 39.5463C34.6661 38.5202 35.7362 37.4981 36.4896 36.7341C36.8671 36.3511 37.1674 36.0307 37.3751 35.8039C37.479 35.6905 37.5598 35.6003 37.6158 35.5373C37.6437 35.5058 37.6655 35.4811 37.6808 35.4636C37.6884 35.4548 37.6945 35.4479 37.6989 35.4429C37.701 35.4403 37.7028 35.4383 37.7042 35.4367C37.7049 35.4359 37.7055 35.4352 37.7059 35.4347C37.7062 35.4344 37.7065 35.4341 37.7066 35.4339C37.7068 35.4336 37.7071 35.4334 36.5716 34.4533ZM24.0001 40.8104C22.8772 40.8104 21.6084 40.4239 20.2728 39.7454C18.9486 39.0726 17.6486 38.159 16.4889 37.2173C15.3335 36.2792 14.3462 35.3369 13.647 34.6278C13.2983 34.2741 13.0235 33.9807 12.8376 33.7778C12.7448 33.6764 12.6743 33.5978 12.6281 33.5457C12.6049 33.5196 12.5879 33.5003 12.5772 33.488C12.5718 33.4819 12.568 33.4775 12.5659 33.475C12.5648 33.4738 12.5641 33.473 12.5638 33.4727C12.5637 33.4725 12.5636 33.4725 12.5637 33.4726C12.5637 33.4726 12.5639 33.4727 12.5639 33.4728C12.564 33.4729 12.5642 33.4731 11.4287 34.4533C10.2932 35.4334 10.2934 35.4336 10.2937 35.4339C10.2938 35.4341 10.2941 35.4344 10.2943 35.4347C10.2948 35.4352 10.2954 35.4359 10.2961 35.4367C10.2974 35.4383 10.2992 35.4403 10.3014 35.4429C10.3058 35.4479 10.3119 35.4548 10.3195 35.4636C10.3348 35.4811 10.3566 35.5058 10.3845 35.5373C10.4405 35.6003 10.5213 35.6905 10.6252 35.8039C10.8329 36.0307 11.1332 36.3511 11.5107 36.7341C12.2641 37.4981 13.3341 38.5202 14.5979 39.5463C15.8573 40.569 17.3384 41.6196 18.914 42.42C20.4783 43.2147 22.2284 43.8104 24.0001 43.8104V40.8104ZM9.92871 11.4287V18.739H12.9287V11.4287H9.92871Z" fill="#22FBF9"/>
  <circle cx="11.4288" cy="23.4525" r="5.28571" stroke="#22FBF9" stroke-width="2"/>
  <path d="M19.2856 29.7385L23.9999 31M28.7142 29.7385L23.9999 31M23.9999 31V41.9544" stroke="#22FBF9" stroke-width="3" stroke-linecap="round"/>
  <mask id="path-5-inside-1_248_143" fill="white">
    <path d="M12.9998 23.4534C12.9998 24.3213 12.2963 25.5717 11.4284 25.5717C10.5605 25.5717 9.85693 24.3213 9.85693 23.4534C9.85693 22.5855 10.5605 20.8574 11.4284 20.8574C12.2963 20.8574 12.9998 22.5855 12.9998 23.4534Z"/>
  </mask>
  <path d="M12.9998 23.4534C12.9998 24.3213 12.2963 25.5717 11.4284 25.5717C10.5605 25.5717 9.85693 24.3213 9.85693 23.4534C9.85693 22.5855 10.5605 20.8574 11.4284 20.8574C12.2963 20.8574 12.9998 22.5855 12.9998 23.4534Z" fill="#00FFFA"/>
  <path d="M9.85693 23.4534C9.85693 23.268 9.88995 23.1711 9.89382 23.1594C9.9005 23.1393 9.90951 23.1168 9.93495 23.0791C9.95504 23.0494 10.0436 22.9231 10.2452 22.7828C10.4569 22.6356 10.8645 22.4289 11.4284 22.4289V28.7146C13.4082 28.7146 14.6274 27.3622 15.1442 26.5969C15.7185 25.7463 16.1426 24.6146 16.1426 23.4534H9.85693ZM11.4284 22.4289C11.9923 22.4289 12.3999 22.6356 12.6115 22.7828C12.8132 22.9231 12.9017 23.0493 12.9218 23.079C12.9472 23.1167 12.9562 23.1392 12.9629 23.1593C12.9668 23.171 12.9998 23.268 12.9998 23.4534H6.71408C6.71408 24.6147 7.13828 25.7464 7.71268 26.597C8.22951 27.3622 9.44864 28.7146 11.4284 28.7146V22.4289ZM12.9998 23.4534C12.9998 23.6113 12.9765 23.6378 13.0069 23.5289C13.0313 23.4418 13.0673 23.3529 13.0986 23.2934C13.1405 23.2138 13.1149 23.2951 12.9618 23.438C12.8211 23.5694 12.2974 24.0003 11.4284 24.0003V17.7146C10.1255 17.7146 9.18835 18.3615 8.67168 18.844C8.14259 19.3381 7.77837 19.9056 7.53585 20.3666C7.07979 21.2334 6.71408 22.3849 6.71408 23.4534H12.9998ZM11.4284 24.0003C10.5594 24.0003 10.0357 23.5693 9.89497 23.438C9.74188 23.295 9.71628 23.2137 9.75813 23.2933C9.78944 23.3528 9.8254 23.4417 9.84979 23.5288C9.88026 23.6377 9.85693 23.6112 9.85693 23.4534H16.1426C16.1426 22.385 15.777 21.2335 15.321 20.3667C15.0785 19.9057 14.7143 19.3381 14.1852 18.844C13.6685 18.3615 12.7314 17.7146 11.4284 17.7146V24.0003Z" fill="#22FBF9" mask="url(#path-5-inside-1_248_143)"/>
  <circle cx="36.5714" cy="23.4525" r="5.28571" stroke="#22FBF9" stroke-width="2"/>
  <mask id="path-8-inside-2_248_143" fill="white">
    <path d="M38.1429 23.4534C38.1429 24.3213 37.4394 25.5717 36.5715 25.5717C35.7036 25.5717 35 24.3213 35 23.4534C35 22.5855 35.7036 20.8574 36.5715 20.8574C37.4394 20.8574 38.1429 22.5855 38.1429 23.4534Z"/>
  </mask>
  <path d="M38.1429 23.4534C38.1429 24.3213 37.4394 25.5717 36.5715 25.5717C35.7036 25.5717 35 24.3213 35 23.4534C35 22.5855 35.7036 20.8574 36.5715 20.8574C37.4394 20.8574 38.1429 22.5855 38.1429 23.4534Z" fill="#00FFFA"/>
  <path d="M35 23.4534C35 23.268 35.033 23.1711 35.0369 23.1594C35.0436 23.1393 35.0526 23.1168 35.078 23.0791C35.0981 23.0494 35.1866 22.9231 35.3883 22.7828C35.5999 22.6356 36.0075 22.4289 36.5715 22.4289V28.7146C38.5513 28.7146 39.7704 27.3622 40.2872 26.5969C40.8616 25.7463 41.2857 24.6146 41.2857 23.4534H35ZM36.5715 22.4289C37.1354 22.4289 37.543 22.6356 37.7546 22.7828C37.9562 22.9231 38.0447 23.0493 38.0648 23.079C38.0903 23.1167 38.0993 23.1392 38.106 23.1593C38.1098 23.171 38.1429 23.268 38.1429 23.4534H31.8571C31.8571 24.6147 32.2813 25.7464 32.8558 26.597C33.3726 27.3622 34.5917 28.7146 36.5715 28.7146V22.4289ZM38.1429 23.4534C38.1429 23.6113 38.1195 23.6378 38.15 23.5289C38.1744 23.4418 38.2103 23.3529 38.2417 23.2934C38.2835 23.2138 38.2579 23.2951 38.1049 23.438C37.9642 23.5694 37.4405 24.0003 36.5715 24.0003V17.7146C35.2685 17.7146 34.3314 18.3615 33.8147 18.844C33.2857 19.3381 32.9214 19.9056 32.6789 20.3666C32.2229 21.2334 31.8571 22.3849 31.8571 23.4534H38.1429ZM36.5715 24.0003C35.7025 24.0003 35.1787 23.5693 35.038 23.438C34.8849 23.295 34.8593 23.2137 34.9012 23.2933C34.9325 23.3528 34.9685 23.4417 34.9929 23.5288C35.0233 23.6377 35 23.6112 35 23.4534H41.2857C41.2857 22.385 40.9201 21.2335 40.464 20.3667C40.2215 19.9057 39.8573 19.3381 39.3282 18.844C38.8116 18.3615 37.8744 17.7146 36.5715 17.7146V24.0003Z" fill="#22FBF9" mask="url(#path-8-inside-2_248_143)"/>
</svg>