<svg xmlns="http://www.w3.org/2000/svg" width="33" height="10" viewBox="0 0 33 10" fill="none">
<path fill-rule="evenodd" clip-rule="evenodd" d="M0 8.5C0 7.94772 0.447715 7.5 1 7.5H32C32.5523 7.5 33 7.94772 33 8.5C33 9.05228 32.5523 9.5 32 9.5H1C0.447715 9.5 0 9.05228 0 8.5Z" fill="#22FBF9"/>
<path fill-rule="evenodd" clip-rule="evenodd" d="M17.5003 0.6C17.5003 0.931371 17.0899 1.8 16.5837 1.8C16.0774 1.8 15.667 0.931371 15.667 0.6C15.667 0.268629 16.0774 0 16.5837 0C17.0899 0 17.5003 0.268629 17.5003 0.6ZM15.4819 4.15972C15.5977 3.72158 15.6663 3.27084 15.6663 2.9998C15.6663 2.33706 15.2559 1.7998 14.7497 1.7998C14.2434 1.7998 13.833 2.33706 13.833 2.9998C13.833 3.44135 14.0152 4.35986 14.2865 4.92379C12.9015 5.33237 12 5.99811 12 6.75C12 7.99264 14.4624 9 17.5 9C20.5376 9 23 7.99264 23 6.75C23 5.9394 21.9522 5.22891 20.3804 4.83286C20.4939 4.59015 20.5898 4.32928 20.6651 4.04975C21.4875 2.22175 20.7376 2.63106 19.9634 3.05366C19.4035 3.35926 18.8309 3.6718 18.8309 3.15031C18.8309 2.72329 18.9618 2.43028 19.0514 2.22961C19.2226 1.84631 19.2434 1.79987 17.9142 1.79987C17.0445 1.79987 17.0912 2.46394 17.137 3.11468V3.11468C17.1945 3.93284 17.2506 4.72993 15.4819 4.15972Z" fill="#22FBF9"/>
</svg>