<svg xmlns="http://www.w3.org/2000/svg" width="33" height="36" viewBox="0 0 33 36" fill="none">
  <path fill-rule="evenodd" clip-rule="evenodd" d="M26.4123 2.09409C26.5901 1.68368 27.1791 1.70457 27.3274 2.12654L28.4875 5.42701C28.536 5.56499 28.6434 5.67422 28.7805 5.72504L31.8371 6.85777C32.2542 7.01235 32.268 7.59729 31.8587 7.77139L28.753 9.09213C28.6321 9.14354 28.5368 9.2412 28.4884 9.36332L27.3117 12.3293C27.1558 12.7223 26.6093 12.7483 26.4168 12.3719L24.8597 9.32758C24.8084 9.22724 24.7241 9.14756 24.6211 9.10191L21.5742 7.7521C21.179 7.577 21.1858 7.01376 21.5851 6.84823L24.7741 5.52644C24.892 5.47757 24.9863 5.38479 25.0371 5.26769L26.4123 2.09409ZM25.1135 24.6981C25.2913 24.2877 25.8803 24.3086 26.0286 24.7305L27.1887 28.031C27.2372 28.169 27.3446 28.2782 27.4817 28.329L30.5383 29.4618C30.9554 29.6164 30.9692 30.2013 30.5598 30.3754L27.4542 31.6961C27.3333 31.7475 27.238 31.8452 27.1895 31.9673L26.0129 34.9333C25.8569 35.3263 25.3105 35.3523 25.118 34.9759L23.5609 31.9316C23.5096 31.8312 23.4253 31.7516 23.3223 31.7059L20.2754 30.3561C19.8802 30.181 19.8869 29.6178 20.2863 29.4522L23.4753 28.1304C23.5932 28.0816 23.6875 27.9888 23.7382 27.8717L25.1135 24.6981ZM14.596 6.86082C14.2777 5.95534 13.0139 5.91051 12.6323 6.79117L9.68124 13.6012C9.57236 13.8525 9.37005 14.0516 9.11707 14.1564L2.27397 16.9928C1.41703 17.348 1.40247 18.5566 2.2506 18.9323L8.78864 21.8288C9.00977 21.9268 9.19054 22.0977 9.30068 22.3131L12.6419 28.8456C13.0551 29.6534 14.2276 29.5976 14.5622 28.7543L17.0872 22.3897C17.1911 22.1277 17.3956 21.9181 17.655 21.8078L24.3193 18.9737C25.1977 18.6001 25.1681 17.345 24.273 17.0132L17.7141 14.5826C17.4199 14.4735 17.1894 14.2392 17.0853 13.9431L14.596 6.86082Z" fill="#22FBF9"/>
</svg>