<svg width="28" height="31" viewBox="0 0 28 31" fill="none" xmlns="http://www.w3.org/2000/svg">
<path d="M5.05654 6.13136C5.05579 5.18868 5.81839 4.46306 6.75987 4.51065L20.368 5.1985C21.4331 5.25233 22.2381 6.25999 22.0462 7.29905L21.8653 8.27812C21.8477 8.37341 21.8384 8.47046 21.8375 8.5682L21.6977 23.4235C21.6964 23.5663 21.7129 23.7095 21.747 23.8499L21.9129 24.5336C22.1771 25.6224 21.3648 26.6192 20.259 26.5633L6.77694 25.8818C5.83546 25.8343 5.07163 25.0315 5.07088 24.0888L5.05654 6.13136Z" fill="#E0E0E0"/>
<path fill-rule="evenodd" clip-rule="evenodd" d="M6.14616 4.09217C5.20468 4.04458 4.44207 4.77019 4.44282 5.71287L4.45717 23.6703C4.45792 24.613 5.22175 25.4158 6.16322 25.4634L19.6452 26.1448C20.7511 26.2007 21.5634 25.2039 21.2992 24.1152L21.1333 23.4315C21.0992 23.291 21.0826 23.1478 21.084 23.0051L21.2238 8.14971C21.2247 8.05197 21.234 7.95493 21.2516 7.85964L21.4325 6.88056C21.6244 5.84151 20.8194 4.83385 19.7543 4.78001L6.14616 4.09217ZM8.48826 7.34666C8.02849 7.32342 7.65608 7.67777 7.65645 8.13813C7.65681 8.59848 8.02983 8.99051 8.48959 9.01375L17.1525 9.45163C17.6123 9.47487 17.9847 9.12052 17.9843 8.66017C17.984 8.19981 17.611 7.80779 17.1512 7.78455L8.48826 7.34666ZM7.85611 11.1056C7.85574 10.6452 8.22815 10.2909 8.68792 10.3141L17.3508 10.752C17.8106 10.7752 18.1836 11.1672 18.184 11.6276C18.1844 12.0879 17.8119 12.4423 17.3522 12.4191L8.68925 11.9812C8.22949 11.9579 7.85647 11.5659 7.85611 11.1056ZM6.68325 20.2427C6.07801 20.2121 5.58776 20.6786 5.58825 21.2846L5.58846 21.5514C5.58894 22.1574 6.07998 22.6735 6.68521 22.7041L18.7375 23.3133L18.7355 20.8519L6.68325 20.2427Z" fill="#BEBEBE"/>
</svg>
