<svg width="19" height="20" viewBox="0 0 19 20" fill="none" xmlns="http://www.w3.org/2000/svg">
<g clip-path="url(#clip0_1029_1135)">
<path fill-rule="evenodd" clip-rule="evenodd" d="M14.9073 1.32443C15.0043 1.10057 15.3255 1.11196 15.4064 1.34213L16.0392 3.14239C16.0657 3.21765 16.1243 3.27723 16.199 3.30495L17.8663 3.9228C18.0938 4.00712 18.1013 4.32618 17.878 4.42114L16.184 5.14155C16.1181 5.16959 16.0661 5.22286 16.0397 5.28947L15.3979 6.90728C15.3128 7.12165 15.0147 7.13583 14.9097 6.93052L14.0604 5.26998C14.0324 5.21525 13.9864 5.17178 13.9303 5.14688L12.2683 4.41062C12.0528 4.31511 12.0565 4.00789 12.2743 3.9176L14.0137 3.19662C14.078 3.16997 14.1295 3.11936 14.1572 3.05549L14.9073 1.32443ZM14.1988 13.6539C14.2958 13.4301 14.6171 13.4415 14.698 13.6716L15.3308 15.4719C15.3572 15.5471 15.4158 15.6067 15.4906 15.6344L17.1578 16.2523C17.3853 16.3366 17.3929 16.6557 17.1696 16.7506L15.4756 17.471C15.4096 17.4991 15.3577 17.5523 15.3312 17.6189L14.6894 19.2368C14.6043 19.4511 14.3063 19.4653 14.2013 19.26L13.352 17.5995C13.324 17.5447 13.278 17.5013 13.2218 17.4764L11.5599 16.7401C11.3443 16.6446 11.348 16.3374 11.5658 16.2471L13.3053 15.5261C13.3696 15.4995 13.421 15.4488 13.4487 15.385L14.1988 13.6539ZM8.46203 3.92447C8.28841 3.43057 7.59907 3.40612 7.39092 3.88648L5.78125 7.60105C5.72186 7.73812 5.61151 7.84672 5.47352 7.90389L1.74092 9.45102C1.2735 9.64476 1.26556 10.304 1.72818 10.5089L5.29438 12.0888C5.415 12.1423 5.5136 12.2355 5.57367 12.353L7.39616 15.9162C7.62154 16.3568 8.26108 16.3264 8.44359 15.8664L9.82087 12.3948C9.87754 12.2519 9.98909 12.1376 10.1306 12.0774L13.7656 10.5315C14.2448 10.3277 14.2286 9.64313 13.7404 9.46214L10.1628 8.13636C10.0023 8.07685 9.87661 7.94905 9.81983 7.78754L8.46203 3.92447Z" fill="white"/>
</g>
<defs>
<clipPath id="clip0_1029_1135">
<rect width="18" height="19.6364" fill="white" transform="translate(0.5 0.182129)"/>
</clipPath>
</defs>
</svg>
