<svg width="116" height="107" viewBox="0 0 116 107" fill="none" xmlns="http://www.w3.org/2000/svg">
<rect width="115.895" height="106.557" rx="53.2784" fill="#080D27"/>
<path fill-rule="evenodd" clip-rule="evenodd" d="M29.7813 12.957C28.7121 11.9799 27.1668 11.7264 25.8415 12.3106C24.5161 12.8948 23.6608 14.2066 23.6608 15.655V30.0753C16.9669 31.7143 12 37.7532 12 44.9523C12 52.1514 16.9669 58.1904 23.6608 59.8293V71.7571C23.6608 72.6339 23.976 73.4815 24.5489 74.1452L27.3157 71.7571C24.5489 74.1452 24.5495 74.1459 24.5501 74.1466L24.5517 74.1484L24.5559 74.1533L24.569 74.1683L24.613 74.2188C24.6503 74.2614 24.7033 74.3217 24.7714 74.3985C24.9077 74.552 25.1048 74.7717 25.3579 75.0481C25.8639 75.6007 26.5956 76.3815 27.5156 77.3145C29.3512 79.1763 31.9585 81.6666 35.0378 84.1669C38.1066 86.6587 41.7153 89.2186 45.5546 91.1691C49.3662 93.1054 53.6303 94.5569 57.9475 94.5569C62.2647 94.5569 66.5288 93.1054 70.3404 91.1691C74.1797 89.2186 77.7884 86.6587 80.8573 84.1669C83.9365 81.6666 86.5439 79.1763 88.3795 77.3145C89.2995 76.3815 90.0311 75.6007 90.5371 75.0481C90.7902 74.7717 90.9873 74.552 91.1236 74.3985C91.1666 74.3501 91.2035 74.3082 91.2343 74.2732L91.282 74.2188L91.3261 74.1683L91.3391 74.1533L91.3434 74.1484L91.3449 74.1466C91.3455 74.1459 91.3461 74.1452 88.5793 71.7571L91.3461 74.1452C91.919 73.4815 92.2342 72.6339 92.2342 71.7571V59.8293C98.928 58.1902 103.895 52.1513 103.895 44.9523C103.895 37.7534 98.928 31.7145 92.2342 30.0754V15.655C92.2342 14.2066 91.3789 12.8948 90.0536 12.3106C88.7282 11.7264 87.1829 11.9799 86.1137 12.957L57.9475 38.6966L29.7813 12.957ZM73.2629 44.9523C73.2629 52.1516 78.2301 58.1908 84.9244 59.8295V70.3523C84.4853 70.8269 83.8944 71.4519 83.1742 72.1823C81.4705 73.9103 79.0649 76.2061 76.2496 78.4921C73.4238 80.7865 70.2563 83.0128 67.0296 84.652C65.154 85.6048 63.3325 86.3213 61.6019 86.7574V66.1483L70.3787 63.7998C72.3287 63.278 73.4864 61.2743 72.9646 59.3243C72.4429 57.3743 70.4391 56.2166 68.4892 56.7384L57.947 59.5593L47.4049 56.7384C45.4549 56.2166 43.4512 57.3743 42.9294 59.3243C42.4076 61.2743 43.5654 63.278 45.5153 63.7998L54.2921 66.1483V86.7571C52.5618 86.321 50.7407 85.6046 48.8654 84.652C45.6388 83.0128 42.4712 80.7865 39.6455 78.4921C36.8301 76.2061 34.4245 73.9103 32.7208 72.1823C32.0006 71.4519 31.4097 70.8269 30.9707 70.3523V59.8294C37.6647 58.1906 42.6318 52.1515 42.6318 44.9523C42.6318 37.7531 37.6647 31.7141 30.9707 30.0752V23.9463L55.4819 46.3458C56.8781 47.6217 59.017 47.6217 60.4131 46.3458L84.9244 23.9463V30.0751C78.2301 31.7139 73.2629 37.753 73.2629 44.9523ZM37.7586 44.9523C37.7586 50.7196 33.0832 55.395 27.3159 55.395C21.5486 55.395 16.8732 50.7196 16.8732 44.9523C16.8732 39.185 21.5486 34.5097 27.3159 34.5097C33.0832 34.5097 37.7586 39.185 37.7586 44.9523ZM27.315 50.1161C29.4297 50.1161 31.1438 47.0693 31.1438 44.9546C31.1438 42.8399 29.4297 38.6292 27.315 38.6292C25.2003 38.6292 23.4859 42.8399 23.4859 44.9546C23.4859 47.0693 25.2003 50.1161 27.315 50.1161ZM88.5788 55.395C94.3461 55.395 99.0215 50.7196 99.0215 44.9523C99.0215 39.185 94.3461 34.5097 88.5788 34.5097C82.8115 34.5097 78.1361 39.185 78.1361 44.9523C78.1361 50.7196 82.8115 55.395 88.5788 55.395ZM88.5791 50.1161C90.6938 50.1161 92.4079 47.0693 92.4079 44.9546C92.4079 42.8399 90.6938 38.6292 88.5791 38.6292C86.4644 38.6292 84.75 42.8399 84.75 44.9546C84.75 47.0693 86.4644 50.1161 88.5791 50.1161Z" fill="white"/>
</svg>
